<svg xmlns="http://www.w3.org/2000/svg" xmlns:xlink="http://www.w3.org/1999/xlink" version="1.1" x="0px" y="0px" viewBox="0 0 90 62.5" enable-background="new 0 0 90 50" xml:space="preserve"><g><path fill="none" stroke="#000000" stroke-width="1.5" stroke-miterlimit="10" d="M8.755,22.466c0,0,0.285-15.693,32.527-15.407   c0,0,17.977-2.283,39.09,15.407c0,0-9.132,14.266-38.805,14.838C41.567,37.305,9.325,37.303,8.755,22.466z"/><path fill="none" stroke="#000000" stroke-width="1.5" stroke-miterlimit="10" d="M80.372,22.466c-41.086-14.266-71.617,0-71.617,0   "/><path fill="none" stroke="#000000" stroke-width="1.5" stroke-miterlimit="10" d="M8.755,22.466c0,0,19.836,15.336,71.617,0"/></g><path d="M70.951,33.881c0,0,4.932-1.498,9.421-6.207c0,0,1.931,6.42,0,6.85C80.372,34.523,75.017,36.877,70.951,33.881z"/><path d="M26.764,38.098c0,0,14.247,4.176,28.984,0c0,0,0.737,6.631-2.456,7.613H31.43C31.43,45.711,26.764,45.467,26.764,38.098z"/><g><path d="M65.938,9.963C65.97,9.935,66,9.905,66.033,9.877c-0.031-0.009-0.066-0.02-0.096-0.028V9.963z"/><path d="M83.859,9.699c0,0-13.701-3.238-17.826,0.178c2.5,0.74,11.799,3.855,15.774,10.308   C81.808,20.185,86.68,11.625,83.859,9.699z"/></g><text x="0" y="65" fill="#000000" font-size="5px" font-weight="bold" font-family="'Helvetica Neue', Helvetica, Arial-Unicode, Arial, Sans-serif">Created by Jonathan Li</text><text x="0" y="70" fill="#000000" font-size="5px" font-weight="bold" font-family="'Helvetica Neue', Helvetica, Arial-Unicode, Arial, Sans-serif">from the Noun Project</text></svg>